M48
; DRILL file {KiCad (6.0.2-0)} date Wednesday, March 30, 2022 at 03:18:03 PM
; FORMAT={-:-/ absolute / inch / decimal}
; #@! TF.CreationDate,2022-03-30T15:18:03-04:00
; #@! TF.GenerationSoftware,Kicad,Pcbnew,(6.0.2-0)
; #@! TF.FileFunction,Plated,1,2,PTH
FMAT,2
INCH
; #@! TA.AperFunction,Plated,PTH,ViaDrill
T1C0.0157
; #@! TA.AperFunction,Plated,PTH,ComponentDrill
T2C0.0315
; #@! TA.AperFunction,Plated,PTH,ComponentDrill
T3C0.0433
%
G90
G05
T1
X5.0Y-4.94
X5.0285Y-4.775
X5.09Y-3.52
X5.1Y-3.7
X5.1Y-3.9
X5.1Y-4.1
X5.1Y-4.3
X5.11Y-4.6
X5.175Y-4.65
X5.2Y-4.2
X5.2Y-4.4
X5.2Y-4.75
X5.21Y-4.9315
X5.25Y-3.85
X5.3Y-4.1
X5.3Y-4.3
X5.3Y-4.5
X5.325Y-4.65
X5.325Y-4.75
X5.375Y-3.975
X5.4Y-3.825
X5.44Y-4.94
X5.45Y-4.025
X5.45Y-4.85
X5.5Y-3.45
X5.5Y-3.55
X5.5Y-4.1
X5.525Y-3.75
X5.525Y-3.85
X5.525Y-3.95
X5.5579Y-4.9228
T2
X5.4213Y-5.075
X5.5Y-5.075
X5.5787Y-5.075
T3
X5.0Y-3.4
X5.0Y-3.5
X5.0Y-3.6
X5.0Y-3.7
X5.0Y-3.8
X5.0Y-3.9
X5.0Y-4.0
X5.0Y-4.1
X5.0Y-4.2
X5.0Y-4.3
X5.0Y-4.4
X5.0Y-4.5
X5.0Y-4.6
X5.0Y-4.7
X5.6Y-3.4
X5.6Y-3.5
X5.6Y-3.6
X5.6Y-3.7
X5.6Y-3.8
X5.6Y-3.9
X5.6Y-4.0
X5.6Y-4.1
X5.6Y-4.2
X5.6Y-4.3
X5.6Y-4.4
X5.6Y-4.5
X5.6Y-4.6
X5.6Y-4.7
T0
M30
