%TF.GenerationSoftware,KiCad,Pcbnew,(6.0.2-0)*%
%TF.CreationDate,2022-03-30T15:17:53-04:00*%
%TF.ProjectId,dream_controller,64726561-6d5f-4636-9f6e-74726f6c6c65,rev?*%
%TF.SameCoordinates,Original*%
%TF.FileFunction,Copper,L1,Top*%
%TF.FilePolarity,Positive*%
%FSLAX46Y46*%
G04 Gerber Fmt 4.6, Leading zero omitted, Abs format (unit mm)*
G04 Created by KiCad (PCBNEW (6.0.2-0)) date 2022-03-30 15:17:53*
%MOMM*%
%LPD*%
G01*
G04 APERTURE LIST*
G04 Aperture macros list*
%AMRoundRect*
0 Rectangle with rounded corners*
0 $1 Rounding radius*
0 $2 $3 $4 $5 $6 $7 $8 $9 X,Y pos of 4 corners*
0 Add a 4 corners polygon primitive as box body*
4,1,4,$2,$3,$4,$5,$6,$7,$8,$9,$2,$3,0*
0 Add four circle primitives for the rounded corners*
1,1,$1+$1,$2,$3*
1,1,$1+$1,$4,$5*
1,1,$1+$1,$6,$7*
1,1,$1+$1,$8,$9*
0 Add four rect primitives between the rounded corners*
20,1,$1+$1,$2,$3,$4,$5,0*
20,1,$1+$1,$4,$5,$6,$7,0*
20,1,$1+$1,$6,$7,$8,$9,0*
20,1,$1+$1,$8,$9,$2,$3,0*%
G04 Aperture macros list end*
%TA.AperFunction,ComponentPad*%
%ADD10R,1.600000X1.600000*%
%TD*%
%TA.AperFunction,ComponentPad*%
%ADD11C,1.600000*%
%TD*%
%TA.AperFunction,SMDPad,CuDef*%
%ADD12R,0.700000X2.400000*%
%TD*%
%TA.AperFunction,SMDPad,CuDef*%
%ADD13R,0.500000X2.400000*%
%TD*%
%TA.AperFunction,ComponentPad*%
%ADD14R,1.350000X1.350000*%
%TD*%
%TA.AperFunction,ComponentPad*%
%ADD15O,1.350000X1.350000*%
%TD*%
%TA.AperFunction,SMDPad,CuDef*%
%ADD16RoundRect,0.100000X0.637500X0.100000X-0.637500X0.100000X-0.637500X-0.100000X0.637500X-0.100000X0*%
%TD*%
%TA.AperFunction,ViaPad*%
%ADD17C,0.800000*%
%TD*%
%TA.AperFunction,Conductor*%
%ADD18C,0.250000*%
%TD*%
G04 APERTURE END LIST*
D10*
%TO.P,U1,1,GND*%
%TO.N,GND*%
X127000000Y-86360000D03*
D11*
%TO.P,U1,2,0_RX1_MOSI1_Touch*%
%TO.N,/DAC_DATA*%
X127000000Y-88900000D03*
%TO.P,U1,3,1_TX1_MISO1_Touch*%
%TO.N,unconnected-(U1-Pad3)*%
X127000000Y-91440000D03*
%TO.P,U1,4,2*%
%TO.N,/DAC_LATCH*%
X127000000Y-93980000D03*
%TO.P,U1,5,3_RX1_PWM_Touch*%
%TO.N,unconnected-(U1-Pad5)*%
X127000000Y-96520000D03*
%TO.P,U1,6,4_TX1_PWM_Touch*%
%TO.N,unconnected-(U1-Pad6)*%
X127000000Y-99060000D03*
%TO.P,U1,7,5_TX1_MISO1*%
%TO.N,unconnected-(U1-Pad7)*%
X127000000Y-101600000D03*
%TO.P,U1,8,6_RX3_CS1_PWM*%
%TO.N,unconnected-(U1-Pad8)*%
X127000000Y-104140000D03*
%TO.P,U1,9,7_RX3_MOSI0*%
%TO.N,unconnected-(U1-Pad9)*%
X127000000Y-106680000D03*
%TO.P,U1,10,8_TX3_MISO0*%
%TO.N,unconnected-(U1-Pad10)*%
X127000000Y-109220000D03*
%TO.P,U1,11,9_RX2_PWM*%
%TO.N,/CAP_DR*%
X127000000Y-111760000D03*
%TO.P,U1,12,10_TX2_CS0_PWM*%
%TO.N,/CAP_CS*%
X127000000Y-114300000D03*
%TO.P,U1,13,11_MOSI0*%
%TO.N,/CAP_COPI*%
X127000000Y-116840000D03*
%TO.P,U1,14,12_MISO0*%
%TO.N,/CAP_CIPO*%
X127000000Y-119380000D03*
%TO.P,U1,20,13_LED_SCK0*%
%TO.N,/CAP_CLK*%
X142240000Y-119380000D03*
%TO.P,U1,21,14_A0_SCK0*%
%TO.N,unconnected-(U1-Pad21)*%
X142240000Y-116840000D03*
%TO.P,U1,22,15_A1_Touch*%
%TO.N,unconnected-(U1-Pad22)*%
X142240000Y-114300000D03*
%TO.P,U1,23,16_A2_SCL0_PWM_Touch*%
%TO.N,unconnected-(U1-Pad23)*%
X142240000Y-111760000D03*
%TO.P,U1,24,17_A3_SDA0_PWM_Touch*%
%TO.N,unconnected-(U1-Pad24)*%
X142240000Y-109220000D03*
%TO.P,U1,25,18_A4_SDA0_Touch*%
%TO.N,unconnected-(U1-Pad25)*%
X142240000Y-106680000D03*
%TO.P,U1,26,19_A5_SCL0_Touch*%
%TO.N,unconnected-(U1-Pad26)*%
X142240000Y-104140000D03*
%TO.P,U1,27,20_A6_SCK1_PWM_TX3*%
%TO.N,/DAC_CLK*%
X142240000Y-101600000D03*
%TO.P,U1,28,21_A7_MOSI1_RX1*%
%TO.N,unconnected-(U1-Pad28)*%
X142240000Y-99060000D03*
%TO.P,U1,29,22_A8_SCL1_PWM_Touch*%
%TO.N,unconnected-(U1-Pad29)*%
X142240000Y-96520000D03*
%TO.P,U1,30,23_A9_SDA1_PWM_Touch*%
%TO.N,unconnected-(U1-Pad30)*%
X142240000Y-93980000D03*
%TO.P,U1,31,3.3V*%
%TO.N,+3V3*%
X142240000Y-91440000D03*
%TO.P,U1,32,GND*%
%TO.N,GND*%
X142240000Y-88900000D03*
%TO.P,U1,33,Vin*%
%TO.N,/VIN*%
X142240000Y-86360000D03*
%TD*%
D12*
%TO.P,J1,*%
%TO.N,*%
X134281000Y-123226000D03*
X134306000Y-127726000D03*
X126806000Y-123226000D03*
X126806000Y-127726000D03*
D13*
%TO.P,J1,1,Pin_1*%
%TO.N,+3V3*%
X133306000Y-127726000D03*
%TO.P,J1,2,Pin_2*%
%TO.N,GND*%
X132806000Y-123226000D03*
%TO.P,J1,3,Pin_3*%
%TO.N,unconnected-(J1-Pad3)*%
X132306000Y-127726000D03*
%TO.P,J1,4,Pin_4*%
%TO.N,unconnected-(J1-Pad4)*%
X131806000Y-123226000D03*
%TO.P,J1,5,Pin_5*%
%TO.N,unconnected-(J1-Pad5)*%
X131306000Y-127726000D03*
%TO.P,J1,6,Pin_6*%
%TO.N,unconnected-(J1-Pad6)*%
X130806000Y-123226000D03*
%TO.P,J1,7,Pin_7*%
%TO.N,unconnected-(J1-Pad7)*%
X130306000Y-127726000D03*
%TO.P,J1,8,Pin_8*%
%TO.N,/CAP_COPI*%
X129806000Y-123226000D03*
%TO.P,J1,9,Pin_9*%
%TO.N,/CAP_DR*%
X129306000Y-127726000D03*
%TO.P,J1,10,Pin_10*%
%TO.N,/CAP_CS*%
X128831000Y-123226000D03*
%TO.P,J1,11,Pin_11*%
%TO.N,/CAP_CIPO*%
X128331000Y-127726000D03*
%TO.P,J1,12,Pin_12*%
%TO.N,/CAP_CLK*%
X127806000Y-123226000D03*
%TD*%
D14*
%TO.P,J2,1,Pin_1*%
%TO.N,/VREF*%
X137700000Y-128905000D03*
D15*
%TO.P,J2,2,Pin_2*%
%TO.N,/POT_X*%
X139700000Y-128905000D03*
%TO.P,J2,3,Pin_3*%
%TO.N,/POT_Y*%
X141700000Y-128905000D03*
%TD*%
D16*
%TO.P,U2,1,Vdd*%
%TO.N,+3V3*%
X142562500Y-126410000D03*
%TO.P,U2,2,NC*%
%TO.N,unconnected-(U2-Pad2)*%
X142562500Y-125760000D03*
%TO.P,U2,3,~{CS}*%
%TO.N,GND*%
X142562500Y-125110000D03*
%TO.P,U2,4,SCK*%
%TO.N,/DAC_CLK*%
X142562500Y-124460000D03*
%TO.P,U2,5,SDI*%
%TO.N,/DAC_DATA*%
X142562500Y-123810000D03*
%TO.P,U2,6,NC*%
%TO.N,unconnected-(U2-Pad6)*%
X142562500Y-123160000D03*
%TO.P,U2,7,NC*%
%TO.N,unconnected-(U2-Pad7)*%
X142562500Y-122510000D03*
%TO.P,U2,8,~{LDAC}*%
%TO.N,/DAC_LATCH*%
X136837500Y-122510000D03*
%TO.P,U2,9,~{SHDN}*%
%TO.N,+3V3*%
X136837500Y-123160000D03*
%TO.P,U2,10,VB*%
%TO.N,/POT_Y*%
X136837500Y-123810000D03*
%TO.P,U2,11,VrefB*%
%TO.N,/VREF*%
X136837500Y-124460000D03*
%TO.P,U2,12,Vss*%
%TO.N,GND*%
X136837500Y-125110000D03*
%TO.P,U2,13,VrefA*%
%TO.N,/VREF*%
X136837500Y-125760000D03*
%TO.P,U2,14,VA*%
%TO.N,/POT_X*%
X136837500Y-126410000D03*
%TD*%
D17*
%TO.N,+3V3*%
X138430000Y-123190000D03*
X138430000Y-102235000D03*
%TO.N,GND*%
X138176000Y-125476000D03*
X132080000Y-120650000D03*
X129540000Y-93980000D03*
X139700000Y-87630000D03*
X133350000Y-97790000D03*
X136525000Y-100965000D03*
X140335000Y-95250000D03*
X134620000Y-114300000D03*
X132080000Y-111760000D03*
X129540000Y-109220000D03*
X129540000Y-104140000D03*
X135255000Y-120650000D03*
X139700000Y-90170000D03*
X137160000Y-97155000D03*
X134620000Y-109220000D03*
X129540000Y-99060000D03*
X131445000Y-118110000D03*
X140335000Y-97790000D03*
X132080000Y-106680000D03*
X132334000Y-125259500D03*
X141170107Y-125039994D03*
X140335000Y-100330000D03*
X129286000Y-89408000D03*
X134620000Y-104140000D03*
X135255000Y-118110000D03*
%TO.N,/CAP_COPI*%
X129794000Y-116840000D03*
%TO.N,/CAP_CIPO*%
X127000000Y-125476000D03*
%TO.N,/CAP_CLK*%
X127724500Y-121285000D03*
%TO.N,/DAC_CLK*%
X139700000Y-104140000D03*
%TD*%
D18*
%TO.N,+3V3*%
X141515499Y-126410000D02*
X142562500Y-126410000D01*
X138430000Y-123324501D02*
X141515499Y-126410000D01*
X135255000Y-123825000D02*
X135255000Y-124460000D01*
X138430000Y-123190000D02*
X138430000Y-123324501D01*
X133306000Y-126409000D02*
X133306000Y-127726000D01*
X135255000Y-124460000D02*
X133306000Y-126409000D01*
X138430000Y-123190000D02*
X138430000Y-102235000D01*
X136837500Y-123160000D02*
X135920000Y-123160000D01*
X138400000Y-123160000D02*
X138430000Y-123190000D01*
X136837500Y-123160000D02*
X138400000Y-123160000D01*
X135920000Y-123160000D02*
X135255000Y-123825000D01*
%TO.N,GND*%
X127000000Y-87122000D02*
X129286000Y-89408000D01*
X132806000Y-123226000D02*
X132806000Y-124787500D01*
X142562500Y-125110000D02*
X141240113Y-125110000D01*
X127000000Y-86360000D02*
X127000000Y-87122000D01*
X136837500Y-125110000D02*
X137810000Y-125110000D01*
X141240113Y-125110000D02*
X141170107Y-125039994D01*
X132806000Y-124787500D02*
X132334000Y-125259500D01*
X137810000Y-125110000D02*
X138176000Y-125476000D01*
%TO.N,/CAP_COPI*%
X129806000Y-116852000D02*
X129794000Y-116840000D01*
X129806000Y-123226000D02*
X129806000Y-116852000D01*
%TO.N,/CAP_DR*%
X129794000Y-125984000D02*
X129306000Y-126472000D01*
X132842000Y-125984000D02*
X129794000Y-125984000D01*
X129306000Y-127726000D02*
X129306000Y-126472000D01*
X133606489Y-125219511D02*
X132842000Y-125984000D01*
X127000000Y-111760000D02*
X133606489Y-118366489D01*
X133606489Y-118366489D02*
X133606489Y-125219511D01*
%TO.N,/CAP_CS*%
X128831000Y-123226000D02*
X128831000Y-116131000D01*
X128831000Y-116131000D02*
X127000000Y-114300000D01*
%TO.N,/CAP_CIPO*%
X128331000Y-126807000D02*
X127000000Y-125476000D01*
X128331000Y-127726000D02*
X128331000Y-126807000D01*
%TO.N,/CAP_CLK*%
X127806000Y-123226000D02*
X127806000Y-121366500D01*
X127806000Y-121366500D02*
X127724500Y-121285000D01*
%TO.N,/VREF*%
X135860000Y-125760000D02*
X135775480Y-125844520D01*
X136837500Y-124460000D02*
X135890000Y-124460000D01*
X135775480Y-124574520D02*
X135775480Y-125844520D01*
X135775480Y-126980480D02*
X137700000Y-128905000D01*
X135890000Y-124460000D02*
X135775480Y-124574520D01*
X136837500Y-125760000D02*
X135860000Y-125760000D01*
X135775480Y-125844520D02*
X135775480Y-126980480D01*
%TO.N,/POT_X*%
X137205000Y-126410000D02*
X139700000Y-128905000D01*
X136837500Y-126410000D02*
X137205000Y-126410000D01*
%TO.N,/POT_Y*%
X141700000Y-128905000D02*
X141700000Y-127950406D01*
X137559594Y-123810000D02*
X136837500Y-123810000D01*
X141700000Y-127950406D02*
X137559594Y-123810000D01*
%TO.N,/DAC_CLK*%
X139700000Y-122555718D02*
X139700000Y-104140000D01*
X141604282Y-124460000D02*
X139700000Y-122555718D01*
X142562500Y-124460000D02*
X141604282Y-124460000D01*
%TO.N,/DAC_LATCH*%
X127000000Y-93980000D02*
X136837500Y-103817500D01*
X136837500Y-103817500D02*
X136837500Y-122510000D01*
%TO.N,/DAC_DATA*%
X140716000Y-102616000D02*
X127000000Y-88900000D01*
X142562500Y-123810000D02*
X141590000Y-123810000D01*
X140716000Y-122936000D02*
X140716000Y-102616000D01*
X141590000Y-123810000D02*
X140716000Y-122936000D01*
%TD*%
%TA.AperFunction,Conductor*%
%TO.N,GND*%
G36*
X130886139Y-116544799D02*
G01*
X130903127Y-116559031D01*
X132936084Y-118591988D01*
X132970110Y-118654300D01*
X132972989Y-118681083D01*
X132972989Y-123350000D01*
X132952987Y-123418121D01*
X132899331Y-123464614D01*
X132846989Y-123476000D01*
X132690500Y-123476000D01*
X132622379Y-123455998D01*
X132575886Y-123402342D01*
X132564500Y-123350000D01*
X132564500Y-121977866D01*
X132557745Y-121915684D01*
X132558088Y-121915647D01*
X132556000Y-121897836D01*
X132556000Y-121536116D01*
X132551525Y-121520877D01*
X132550135Y-121519672D01*
X132542452Y-121518001D01*
X132511331Y-121518001D01*
X132504510Y-121518371D01*
X132453648Y-121523895D01*
X132438394Y-121527522D01*
X132350941Y-121560306D01*
X132280134Y-121565489D01*
X132262483Y-121560306D01*
X132173718Y-121527029D01*
X132173712Y-121527027D01*
X132166316Y-121524255D01*
X132104134Y-121517500D01*
X131507866Y-121517500D01*
X131445684Y-121524255D01*
X131438288Y-121527027D01*
X131438282Y-121527029D01*
X131350229Y-121560039D01*
X131279422Y-121565222D01*
X131261771Y-121560039D01*
X131173718Y-121527029D01*
X131173712Y-121527027D01*
X131166316Y-121524255D01*
X131104134Y-121517500D01*
X130565500Y-121517500D01*
X130497379Y-121497498D01*
X130450886Y-121443842D01*
X130439500Y-121391500D01*
X130439500Y-117529197D01*
X130459502Y-117461076D01*
X130471864Y-117444887D01*
X130528621Y-117381852D01*
X130528622Y-117381851D01*
X130533040Y-117376944D01*
X130628527Y-117211556D01*
X130687542Y-117029928D01*
X130707504Y-116840000D01*
X130688722Y-116661296D01*
X130701494Y-116591458D01*
X130749996Y-116539611D01*
X130818829Y-116522217D01*
X130886139Y-116544799D01*
G37*
%TD.AperFunction*%
%TA.AperFunction,Conductor*%
G36*
X128511393Y-96389534D02*
G01*
X128526589Y-96402493D01*
X132385136Y-100261041D01*
X136167095Y-104043000D01*
X136201121Y-104105312D01*
X136204000Y-104132095D01*
X136204000Y-121286000D01*
X136183998Y-121354121D01*
X136130342Y-121400614D01*
X136078000Y-121412000D01*
X134365989Y-121412000D01*
X134297868Y-121391998D01*
X134251375Y-121338342D01*
X134239989Y-121286000D01*
X134239989Y-118445252D01*
X134240516Y-118434068D01*
X134242190Y-118426580D01*
X134240051Y-118358521D01*
X134239989Y-118354564D01*
X134239989Y-118326633D01*
X134239483Y-118322627D01*
X134238550Y-118310781D01*
X134237898Y-118290008D01*
X134237162Y-118266599D01*
X134231511Y-118247147D01*
X134227503Y-118227795D01*
X134225956Y-118215552D01*
X134224963Y-118207692D01*
X134222045Y-118200321D01*
X134208689Y-118166586D01*
X134204844Y-118155359D01*
X134202042Y-118145716D01*
X134192507Y-118112896D01*
X134188473Y-118106074D01*
X134188470Y-118106068D01*
X134182195Y-118095457D01*
X134173499Y-118077707D01*
X134168961Y-118066245D01*
X134168958Y-118066240D01*
X134166041Y-118058872D01*
X134140062Y-118023114D01*
X134133546Y-118013196D01*
X134115064Y-117981946D01*
X134111031Y-117975126D01*
X134096707Y-117960802D01*
X134083865Y-117945767D01*
X134071961Y-117929382D01*
X134037895Y-117901200D01*
X134029116Y-117893211D01*
X128309152Y-112173247D01*
X128275126Y-112110935D01*
X128276540Y-112051541D01*
X128293543Y-111988087D01*
X128313498Y-111760000D01*
X128293543Y-111531913D01*
X128234284Y-111310757D01*
X128231961Y-111305775D01*
X128139849Y-111108238D01*
X128139846Y-111108233D01*
X128137523Y-111103251D01*
X128006198Y-110915700D01*
X127844300Y-110753802D01*
X127839792Y-110750645D01*
X127839789Y-110750643D01*
X127724630Y-110670008D01*
X127656749Y-110622477D01*
X127651767Y-110620154D01*
X127651762Y-110620151D01*
X127617543Y-110604195D01*
X127564258Y-110557278D01*
X127544797Y-110489001D01*
X127565339Y-110421041D01*
X127617543Y-110375805D01*
X127651762Y-110359849D01*
X127651767Y-110359846D01*
X127656749Y-110357523D01*
X127762000Y-110283825D01*
X127839789Y-110229357D01*
X127839792Y-110229355D01*
X127844300Y-110226198D01*
X128006198Y-110064300D01*
X128137523Y-109876749D01*
X128139846Y-109871767D01*
X128139849Y-109871762D01*
X128231961Y-109674225D01*
X128231961Y-109674224D01*
X128234284Y-109669243D01*
X128293543Y-109448087D01*
X128313498Y-109220000D01*
X128293543Y-108991913D01*
X128234284Y-108770757D01*
X128231961Y-108765775D01*
X128139849Y-108568238D01*
X128139846Y-108568233D01*
X128137523Y-108563251D01*
X128006198Y-108375700D01*
X127844300Y-108213802D01*
X127839792Y-108210645D01*
X127839789Y-108210643D01*
X127724630Y-108130008D01*
X127656749Y-108082477D01*
X127651767Y-108080154D01*
X127651762Y-108080151D01*
X127617543Y-108064195D01*
X127564258Y-108017278D01*
X127544797Y-107949001D01*
X127565339Y-107881041D01*
X127617543Y-107835805D01*
X127651762Y-107819849D01*
X127651767Y-107819846D01*
X127656749Y-107817523D01*
X127762000Y-107743825D01*
X127839789Y-107689357D01*
X127839792Y-107689355D01*
X127844300Y-107686198D01*
X128006198Y-107524300D01*
X128137523Y-107336749D01*
X128139846Y-107331767D01*
X128139849Y-107331762D01*
X128231961Y-107134225D01*
X128231961Y-107134224D01*
X128234284Y-107129243D01*
X128293543Y-106908087D01*
X128313498Y-106680000D01*
X128293543Y-106451913D01*
X128234284Y-106230757D01*
X128231961Y-106225775D01*
X128139849Y-106028238D01*
X128139846Y-106028233D01*
X128137523Y-106023251D01*
X128006198Y-105835700D01*
X127844300Y-105673802D01*
X127839792Y-105670645D01*
X127839789Y-105670643D01*
X127724630Y-105590008D01*
X127656749Y-105542477D01*
X127651767Y-105540154D01*
X127651762Y-105540151D01*
X127617543Y-105524195D01*
X127564258Y-105477278D01*
X127544797Y-105409001D01*
X127565339Y-105341041D01*
X127617543Y-105295805D01*
X127651762Y-105279849D01*
X127651767Y-105279846D01*
X127656749Y-105277523D01*
X127762000Y-105203825D01*
X127839789Y-105149357D01*
X127839792Y-105149355D01*
X127844300Y-105146198D01*
X128006198Y-104984300D01*
X128137523Y-104796749D01*
X128139846Y-104791767D01*
X128139849Y-104791762D01*
X128231961Y-104594225D01*
X128231961Y-104594224D01*
X128234284Y-104589243D01*
X128293543Y-104368087D01*
X128313498Y-104140000D01*
X128293543Y-103911913D01*
X128234284Y-103690757D01*
X128197593Y-103612072D01*
X128139849Y-103488238D01*
X128139846Y-103488233D01*
X128137523Y-103483251D01*
X128035718Y-103337859D01*
X128009357Y-103300211D01*
X128009355Y-103300208D01*
X128006198Y-103295700D01*
X127844300Y-103133802D01*
X127839792Y-103130645D01*
X127839789Y-103130643D01*
X127724630Y-103050008D01*
X127656749Y-103002477D01*
X127651767Y-103000154D01*
X127651762Y-103000151D01*
X127617543Y-102984195D01*
X127564258Y-102937278D01*
X127544797Y-102869001D01*
X127565339Y-102801041D01*
X127617543Y-102755805D01*
X127651762Y-102739849D01*
X127651767Y-102739846D01*
X127656749Y-102737523D01*
X127762000Y-102663825D01*
X127839789Y-102609357D01*
X127839792Y-102609355D01*
X127844300Y-102606198D01*
X128006198Y-102444300D01*
X128019763Y-102424928D01*
X128134366Y-102261257D01*
X128137523Y-102256749D01*
X128139846Y-102251767D01*
X128139849Y-102251762D01*
X128231961Y-102054225D01*
X128231961Y-102054224D01*
X128234284Y-102049243D01*
X128293543Y-101828087D01*
X128313498Y-101600000D01*
X128293543Y-101371913D01*
X128234284Y-101150757D01*
X128223688Y-101128034D01*
X128139849Y-100948238D01*
X128139846Y-100948233D01*
X128137523Y-100943251D01*
X128006198Y-100755700D01*
X127844300Y-100593802D01*
X127839792Y-100590645D01*
X127839789Y-100590643D01*
X127761611Y-100535902D01*
X127656749Y-100462477D01*
X127651767Y-100460154D01*
X127651762Y-100460151D01*
X127617543Y-100444195D01*
X127564258Y-100397278D01*
X127544797Y-100329001D01*
X127565339Y-100261041D01*
X127617543Y-100215805D01*
X127651762Y-100199849D01*
X127651767Y-100199846D01*
X127656749Y-100197523D01*
X127762000Y-100123825D01*
X127839789Y-100069357D01*
X127839792Y-100069355D01*
X127844300Y-100066198D01*
X128006198Y-99904300D01*
X128137523Y-99716749D01*
X128139846Y-99711767D01*
X128139849Y-99711762D01*
X128231961Y-99514225D01*
X128231961Y-99514224D01*
X128234284Y-99509243D01*
X128293543Y-99288087D01*
X128313498Y-99060000D01*
X128293543Y-98831913D01*
X128234284Y-98610757D01*
X128231961Y-98605775D01*
X128139849Y-98408238D01*
X128139846Y-98408233D01*
X128137523Y-98403251D01*
X128006198Y-98215700D01*
X127844300Y-98053802D01*
X127839792Y-98050645D01*
X127839789Y-98050643D01*
X127761611Y-97995902D01*
X127656749Y-97922477D01*
X127651767Y-97920154D01*
X127651762Y-97920151D01*
X127617543Y-97904195D01*
X127564258Y-97857278D01*
X127544797Y-97789001D01*
X127565339Y-97721041D01*
X127617543Y-97675805D01*
X127651762Y-97659849D01*
X127651767Y-97659846D01*
X127656749Y-97657523D01*
X127762000Y-97583825D01*
X127839789Y-97529357D01*
X127839792Y-97529355D01*
X127844300Y-97526198D01*
X128006198Y-97364300D01*
X128137523Y-97176749D01*
X128139846Y-97171767D01*
X128139849Y-97171762D01*
X128231961Y-96974225D01*
X128231961Y-96974224D01*
X128234284Y-96969243D01*
X128293543Y-96748087D01*
X128313498Y-96520000D01*
X128313019Y-96514525D01*
X128313019Y-96514514D01*
X128311974Y-96502570D01*
X128325962Y-96432965D01*
X128375361Y-96381973D01*
X128444487Y-96365782D01*
X128511393Y-96389534D01*
G37*
%TD.AperFunction*%
%TA.AperFunction,Conductor*%
G36*
X128511393Y-91309534D02*
G01*
X128526589Y-91322493D01*
X138332130Y-101128034D01*
X138366156Y-101190346D01*
X138361091Y-101261161D01*
X138318544Y-101317997D01*
X138269232Y-101340376D01*
X138147712Y-101366206D01*
X138141682Y-101368891D01*
X138141681Y-101368891D01*
X137979278Y-101441197D01*
X137979276Y-101441198D01*
X137973248Y-101443882D01*
X137818747Y-101556134D01*
X137814326Y-101561044D01*
X137814325Y-101561045D01*
X137784180Y-101594525D01*
X137690960Y-101698056D01*
X137595473Y-101863444D01*
X137536458Y-102045072D01*
X137516496Y-102235000D01*
X137536458Y-102424928D01*
X137595473Y-102606556D01*
X137690960Y-102771944D01*
X137764137Y-102853215D01*
X137794853Y-102917221D01*
X137796500Y-102937524D01*
X137796500Y-103362878D01*
X137776498Y-103430999D01*
X137726850Y-103475575D01*
X137560862Y-103558569D01*
X137490987Y-103571143D01*
X137425407Y-103543944D01*
X137397213Y-103510290D01*
X137397052Y-103509883D01*
X137371064Y-103474113D01*
X137364548Y-103464193D01*
X137346080Y-103432965D01*
X137346078Y-103432962D01*
X137342042Y-103426138D01*
X137327721Y-103411817D01*
X137314880Y-103396783D01*
X137307631Y-103386806D01*
X137302972Y-103380393D01*
X137268895Y-103352202D01*
X137260116Y-103344212D01*
X128309152Y-94393248D01*
X128275126Y-94330936D01*
X128276541Y-94271541D01*
X128292118Y-94213409D01*
X128292120Y-94213398D01*
X128293543Y-94208087D01*
X128313498Y-93980000D01*
X128293543Y-93751913D01*
X128234284Y-93530757D01*
X128231961Y-93525775D01*
X128139849Y-93328238D01*
X128139846Y-93328233D01*
X128137523Y-93323251D01*
X128006198Y-93135700D01*
X127844300Y-92973802D01*
X127839792Y-92970645D01*
X127839789Y-92970643D01*
X127761611Y-92915902D01*
X127656749Y-92842477D01*
X127651767Y-92840154D01*
X127651762Y-92840151D01*
X127617543Y-92824195D01*
X127564258Y-92777278D01*
X127544797Y-92709001D01*
X127565339Y-92641041D01*
X127617543Y-92595805D01*
X127651762Y-92579849D01*
X127651767Y-92579846D01*
X127656749Y-92577523D01*
X127762000Y-92503825D01*
X127839789Y-92449357D01*
X127839792Y-92449355D01*
X127844300Y-92446198D01*
X128006198Y-92284300D01*
X128137523Y-92096749D01*
X128139846Y-92091767D01*
X128139849Y-92091762D01*
X128231961Y-91894225D01*
X128231961Y-91894224D01*
X128234284Y-91889243D01*
X128293543Y-91668087D01*
X128313498Y-91440000D01*
X128313019Y-91434525D01*
X128313019Y-91434514D01*
X128311974Y-91422570D01*
X128325962Y-91352965D01*
X128375361Y-91301973D01*
X128444487Y-91285782D01*
X128511393Y-91309534D01*
G37*
%TD.AperFunction*%
%TA.AperFunction,Conductor*%
G36*
X141021897Y-85618002D02*
G01*
X141068390Y-85671658D01*
X141078494Y-85741932D01*
X141067971Y-85777250D01*
X141005716Y-85910757D01*
X140946457Y-86131913D01*
X140926502Y-86360000D01*
X140946457Y-86588087D01*
X141005716Y-86809243D01*
X141008039Y-86814224D01*
X141008039Y-86814225D01*
X141100151Y-87011762D01*
X141100154Y-87011767D01*
X141102477Y-87016749D01*
X141233802Y-87204300D01*
X141395700Y-87366198D01*
X141400208Y-87369355D01*
X141400211Y-87369357D01*
X141478000Y-87423825D01*
X141583251Y-87497523D01*
X141588233Y-87499846D01*
X141588238Y-87499849D01*
X141623049Y-87516081D01*
X141676334Y-87562998D01*
X141695795Y-87631275D01*
X141675253Y-87699235D01*
X141623049Y-87744471D01*
X141588489Y-87760586D01*
X141578994Y-87766069D01*
X141526952Y-87802509D01*
X141518576Y-87812988D01*
X141525644Y-87826434D01*
X142510115Y-88810905D01*
X142544141Y-88873217D01*
X142539076Y-88944032D01*
X142510115Y-88989095D01*
X141524923Y-89974287D01*
X141518493Y-89986062D01*
X141527789Y-89998077D01*
X141578994Y-90033931D01*
X141588489Y-90039414D01*
X141623049Y-90055529D01*
X141676334Y-90102446D01*
X141695795Y-90170723D01*
X141675253Y-90238683D01*
X141623049Y-90283919D01*
X141588238Y-90300151D01*
X141588233Y-90300154D01*
X141583251Y-90302477D01*
X141478389Y-90375902D01*
X141400211Y-90430643D01*
X141400208Y-90430645D01*
X141395700Y-90433802D01*
X141233802Y-90595700D01*
X141102477Y-90783251D01*
X141100154Y-90788233D01*
X141100151Y-90788238D01*
X141008039Y-90985775D01*
X141005716Y-90990757D01*
X140946457Y-91211913D01*
X140926502Y-91440000D01*
X140946457Y-91668087D01*
X141005716Y-91889243D01*
X141008039Y-91894224D01*
X141008039Y-91894225D01*
X141100151Y-92091762D01*
X141100154Y-92091767D01*
X141102477Y-92096749D01*
X141233802Y-92284300D01*
X141395700Y-92446198D01*
X141400208Y-92449355D01*
X141400211Y-92449357D01*
X141478000Y-92503825D01*
X141583251Y-92577523D01*
X141588233Y-92579846D01*
X141588238Y-92579849D01*
X141622457Y-92595805D01*
X141675742Y-92642722D01*
X141695203Y-92710999D01*
X141674661Y-92778959D01*
X141622457Y-92824195D01*
X141588238Y-92840151D01*
X141588233Y-92840154D01*
X141583251Y-92842477D01*
X141478389Y-92915902D01*
X141400211Y-92970643D01*
X141400208Y-92970645D01*
X141395700Y-92973802D01*
X141233802Y-93135700D01*
X141102477Y-93323251D01*
X141100154Y-93328233D01*
X141100151Y-93328238D01*
X141008039Y-93525775D01*
X141005716Y-93530757D01*
X140946457Y-93751913D01*
X140926502Y-93980000D01*
X140946457Y-94208087D01*
X140947881Y-94213400D01*
X140947881Y-94213402D01*
X140979375Y-94330936D01*
X141005716Y-94429243D01*
X141008039Y-94434224D01*
X141008039Y-94434225D01*
X141100151Y-94631762D01*
X141100154Y-94631767D01*
X141102477Y-94636749D01*
X141233802Y-94824300D01*
X141395700Y-94986198D01*
X141400208Y-94989355D01*
X141400211Y-94989357D01*
X141478000Y-95043825D01*
X141583251Y-95117523D01*
X141588233Y-95119846D01*
X141588238Y-95119849D01*
X141622457Y-95135805D01*
X141675742Y-95182722D01*
X141695203Y-95250999D01*
X141674661Y-95318959D01*
X141622457Y-95364195D01*
X141588238Y-95380151D01*
X141588233Y-95380154D01*
X141583251Y-95382477D01*
X141478389Y-95455902D01*
X141400211Y-95510643D01*
X141400208Y-95510645D01*
X141395700Y-95513802D01*
X141233802Y-95675700D01*
X141102477Y-95863251D01*
X141100154Y-95868233D01*
X141100151Y-95868238D01*
X141008039Y-96065775D01*
X141005716Y-96070757D01*
X140946457Y-96291913D01*
X140926502Y-96520000D01*
X140946457Y-96748087D01*
X141005716Y-96969243D01*
X141008039Y-96974224D01*
X141008039Y-96974225D01*
X141100151Y-97171762D01*
X141100154Y-97171767D01*
X141102477Y-97176749D01*
X141233802Y-97364300D01*
X141395700Y-97526198D01*
X141400208Y-97529355D01*
X141400211Y-97529357D01*
X141478000Y-97583825D01*
X141583251Y-97657523D01*
X141588233Y-97659846D01*
X141588238Y-97659849D01*
X141622457Y-97675805D01*
X141675742Y-97722722D01*
X141695203Y-97790999D01*
X141674661Y-97858959D01*
X141622457Y-97904195D01*
X141588238Y-97920151D01*
X141588233Y-97920154D01*
X141583251Y-97922477D01*
X141478389Y-97995902D01*
X141400211Y-98050643D01*
X141400208Y-98050645D01*
X141395700Y-98053802D01*
X141233802Y-98215700D01*
X141102477Y-98403251D01*
X141100154Y-98408233D01*
X141100151Y-98408238D01*
X141008039Y-98605775D01*
X141005716Y-98610757D01*
X140946457Y-98831913D01*
X140926502Y-99060000D01*
X140946457Y-99288087D01*
X141005716Y-99509243D01*
X141008039Y-99514224D01*
X141008039Y-99514225D01*
X141100151Y-99711762D01*
X141100154Y-99711767D01*
X141102477Y-99716749D01*
X141233802Y-99904300D01*
X141395700Y-100066198D01*
X141400208Y-100069355D01*
X141400211Y-100069357D01*
X141478000Y-100123825D01*
X141583251Y-100197523D01*
X141588233Y-100199846D01*
X141588238Y-100199849D01*
X141622457Y-100215805D01*
X141675742Y-100262722D01*
X141695203Y-100330999D01*
X141674661Y-100398959D01*
X141622457Y-100444195D01*
X141588238Y-100460151D01*
X141588233Y-100460154D01*
X141583251Y-100462477D01*
X141478389Y-100535902D01*
X141400211Y-100590643D01*
X141400208Y-100590645D01*
X141395700Y-100593802D01*
X141233802Y-100755700D01*
X141102477Y-100943251D01*
X141100154Y-100948233D01*
X141100151Y-100948238D01*
X141016312Y-101128034D01*
X141005716Y-101150757D01*
X140946457Y-101371913D01*
X140926502Y-101600000D01*
X140926981Y-101605475D01*
X140926981Y-101605485D01*
X140928026Y-101617428D01*
X140914038Y-101687033D01*
X140864639Y-101738026D01*
X140795514Y-101754217D01*
X140728608Y-101730465D01*
X140713411Y-101717506D01*
X128309152Y-89313247D01*
X128275126Y-89250935D01*
X128276540Y-89191541D01*
X128293543Y-89128087D01*
X128313019Y-88905475D01*
X140927483Y-88905475D01*
X140946472Y-89122519D01*
X140948375Y-89133312D01*
X141004764Y-89343761D01*
X141008510Y-89354053D01*
X141100586Y-89551511D01*
X141106069Y-89561006D01*
X141142509Y-89613048D01*
X141152988Y-89621424D01*
X141166434Y-89614356D01*
X141867978Y-88912812D01*
X141875592Y-88898868D01*
X141875461Y-88897035D01*
X141871210Y-88890420D01*
X141165713Y-88184923D01*
X141153938Y-88178493D01*
X141141923Y-88187789D01*
X141106069Y-88238994D01*
X141100586Y-88248489D01*
X141008510Y-88445947D01*
X141004764Y-88456239D01*
X140948375Y-88666688D01*
X140946472Y-88677481D01*
X140927483Y-88894525D01*
X140927483Y-88905475D01*
X128313019Y-88905475D01*
X128313498Y-88900000D01*
X128302977Y-88779745D01*
X128316966Y-88710141D01*
X128366366Y-88659149D01*
X128435491Y-88642958D01*
X128441357Y-88643558D01*
X128448141Y-88645587D01*
X128457118Y-88645642D01*
X128457119Y-88645642D01*
X128463308Y-88645680D01*
X128482556Y-88645797D01*
X128483328Y-88645830D01*
X128484423Y-88646000D01*
X128515298Y-88646000D01*
X128516068Y-88646002D01*
X128589716Y-88646452D01*
X128589717Y-88646452D01*
X128593652Y-88646476D01*
X128594996Y-88646092D01*
X128596341Y-88646000D01*
X137913298Y-88646000D01*
X137914069Y-88646002D01*
X137991652Y-88646476D01*
X138000281Y-88644010D01*
X138000286Y-88644009D01*
X138020048Y-88638361D01*
X138036809Y-88634783D01*
X138057152Y-88631870D01*
X138057162Y-88631867D01*
X138066045Y-88630595D01*
X138089395Y-88619979D01*
X138106907Y-88613536D01*
X138122937Y-88608954D01*
X138131565Y-88606488D01*
X138156548Y-88590726D01*
X138171614Y-88582596D01*
X138198510Y-88570367D01*
X138217939Y-88553626D01*
X138232947Y-88542521D01*
X138247039Y-88533630D01*
X138254631Y-88528840D01*
X138274182Y-88506703D01*
X138286374Y-88494659D01*
X138301949Y-88481239D01*
X138301950Y-88481237D01*
X138308747Y-88475381D01*
X138313626Y-88467853D01*
X138313629Y-88467850D01*
X138322696Y-88453861D01*
X138333986Y-88438987D01*
X138345012Y-88426502D01*
X138350956Y-88419772D01*
X138363510Y-88393034D01*
X138371824Y-88378065D01*
X138387893Y-88353273D01*
X138395239Y-88328709D01*
X138401901Y-88311264D01*
X138408983Y-88296179D01*
X138412799Y-88288052D01*
X138417343Y-88258870D01*
X138421126Y-88242151D01*
X138427014Y-88222464D01*
X138427015Y-88222461D01*
X138429587Y-88213859D01*
X138429797Y-88179444D01*
X138429830Y-88178672D01*
X138430000Y-88177577D01*
X138430000Y-88146702D01*
X138430002Y-88145932D01*
X138430452Y-88072284D01*
X138430452Y-88072283D01*
X138430476Y-88068348D01*
X138430092Y-88067004D01*
X138430000Y-88065659D01*
X138430000Y-85724000D01*
X138450002Y-85655879D01*
X138503658Y-85609386D01*
X138556000Y-85598000D01*
X140953776Y-85598000D01*
X141021897Y-85618002D01*
G37*
%TD.AperFunction*%
%TD*%
M02*
